<svg xmlns="http://www.w3.org/2000/svg" viewBox="0 0 512 512">
  <defs>
    <linearGradient id="sky" x1="0" y1="0" x2="0" y2="1">
      <stop offset="0" stop-color="#0B2533"/>
      <stop offset="0.55" stop-color="#0F3B4E"/>
      <stop offset="1" stop-color="#1E6F8C"/>
    </linearGradient>
    <linearGradient id="aurora" x1="0" y1="0" x2="1" y2="0">
      <stop offset="0" stop-color="#5EEAD4" stop-opacity="0"/>
      <stop offset="0.35" stop-color="#5EEAD4" stop-opacity="0.85"/>
      <stop offset="0.7" stop-color="#E8B778" stop-opacity="0.7"/>
      <stop offset="1" stop-color="#E8B778" stop-opacity="0"/>
    </linearGradient>
  </defs>
  <rect width="512" height="512" rx="110" fill="url(#sky)"/>
  <circle cx="90" cy="110" r="3" fill="#FBFAF7" opacity="0.85"/>
  <circle cx="410" cy="80" r="2.5" fill="#FBFAF7" opacity="0.7"/>
  <circle cx="220" cy="60" r="2" fill="#FBFAF7" opacity="0.6"/>
  <circle cx="340" cy="140" r="2" fill="#FBFAF7" opacity="0.7"/>
  <path d="M 0 140 Q 128 70 256 150 T 512 140 L 512 210 Q 384 260 256 210 T 0 210 Z" fill="url(#aurora)"/>
  <path d="M 0 512 L 0 330 L 110 210 L 185 285 L 275 180 L 375 275 L 455 230 L 512 280 L 512 512 Z" fill="#FBFAF7"/>
  <path d="M 0 512 L 0 410 L 85 355 L 185 395 L 295 335 L 410 395 L 512 365 L 512 512 Z" fill="#DDD6C8"/>
</svg>
